<?xml version="1.0" encoding="utf-8"?>
<!-- Generator: Adobe Illustrator 16.0.0, SVG Export Plug-In . SVG Version: 6.00 Build 0)  -->
<!DOCTYPE svg PUBLIC "-//W3C//DTD SVG 1.1//EN" "http://www.w3.org/Graphics/SVG/1.1/DTD/svg11.dtd">
<svg version="1.1" id="Шар_1" xmlns="http://www.w3.org/2000/svg" xmlns:xlink="http://www.w3.org/1999/xlink" x="0px" y="0px"
	 width="144.139px" height="113.832px" viewBox="0 0 144.139 113.832" enable-background="new 0 0 144.139 113.832"
	 xml:space="preserve">
<path fill-rule="evenodd" clip-rule="evenodd" fill="#2156A4" d="M86.08,113.832c-0.48-0.111-0.961-0.217-1.439-0.338
	c-7.293-1.867-10.148-10.809-5.285-16.559c0.32-0.381,0.672-0.738,1.023-1.09c9.266-9.27,18.531-18.535,27.805-27.795
	c0.225-0.225,0.518-0.38,0.779-0.567c-0.051-0.098-0.1-0.195-0.148-0.293c-0.33,0-0.66,0-0.99,0
	c-32.324,0-64.648-0.005-96.972,0.008c-3.456,0.001-6.384-1.145-8.527-3.886c-2.578-3.301-3.032-6.99-1.258-10.764
	c1.806-3.84,5.013-5.75,9.252-5.915c0.35-0.013,0.698-0.004,1.048-0.004c32.125,0,64.249,0,96.374,0c0.346,0,0.691,0,1.242,0
	c-0.309-0.331-0.494-0.54-0.691-0.737c-9.336-9.338-18.664-18.684-28.014-28.007c-2.18-2.172-3.365-4.727-3.332-7.818
	c0.053-4.905,3.785-9.184,8.643-9.925C85.755,0.116,85.916,0.049,86.08,0c0.748,0,1.498,0,2.246,0
	c0.066,0.034,0.129,0.091,0.197,0.101c2.588,0.329,4.658,1.592,6.475,3.426c5.48,5.531,11.002,11.021,16.508,16.526
	c9.828,9.828,19.664,19.648,29.48,29.489c4.133,4.142,4.225,10.492,0.146,14.58c-15.561,15.6-31.152,31.17-46.734,46.749
	c-1.281,1.281-2.816,2.131-4.559,2.605c-0.5,0.137-1.01,0.238-1.514,0.355C87.578,113.832,86.828,113.832,86.08,113.832z"/>
</svg>
