<?xml version="1.0" encoding="iso-8859-1"?>
<!-- Generator: Adobe Illustrator 19.0.0, SVG Export Plug-In . SVG Version: 6.00 Build 0)  -->
<svg version="1.1" id="Layer_1" xmlns="http://www.w3.org/2000/svg" xmlns:xlink="http://www.w3.org/1999/xlink" x="0px" y="0px"
	 viewBox="0 0 501.568 501.568" style="enable-background:new 0 0 501.568 501.568;" xml:space="preserve">
<g>
	<path style="fill:#2488FF;" d="M501.568,250.478L383.284,132.5v98.196h-70.662c2.044,6.305,3.162,13.023,3.162,20
		s-1.118,13.695-3.162,20h70.662v-20.218H501.568z"/>
	<polygon style="fill:#005ECE;" points="0,250.478 118.284,369.068 118.284,270.696 118.284,250.478 	"/>
	<polygon style="fill:#005ECE;" points="501.568,250.478 383.284,250.478 383.284,270.696 383.284,369.068 	"/>
	<path style="fill:#2488FF;" d="M250.784,185.696c-28.864,0-53.381,18.917-61.838,45h-70.662V132.5L0,250.478h118.284v20.218h70.662
		c8.457,26.083,32.974,45,61.838,45V185.696z"/>
	<path style="fill:#005ECE;" d="M312.622,230.696c-8.457-26.083-32.974-45-61.838-45v130c28.864,0,53.381-18.917,61.838-45
		c2.044-6.305,3.162-13.023,3.162-20S314.667,237.001,312.622,230.696z"/>
</g>
<g>
</g>
<g>
</g>
<g>
</g>
<g>
</g>
<g>
</g>
<g>
</g>
<g>
</g>
<g>
</g>
<g>
</g>
<g>
</g>
<g>
</g>
<g>
</g>
<g>
</g>
<g>
</g>
<g>
</g>
</svg>
