<?xml version="1.0" encoding="utf-8"?>
<!-- Generator: Adobe Illustrator 16.0.0, SVG Export Plug-In . SVG Version: 6.00 Build 0)  -->
<!DOCTYPE svg PUBLIC "-//W3C//DTD SVG 1.1//EN" "http://www.w3.org/Graphics/SVG/1.1/DTD/svg11.dtd">
<svg version="1.1" id="Шар_1" xmlns="http://www.w3.org/2000/svg" xmlns:xlink="http://www.w3.org/1999/xlink" x="0px" y="0px"
	 width="100px" height="100px" viewBox="0 0 100 100" enable-background="new 0 0 100 100" xml:space="preserve">
<g>
	<path fill-rule="evenodd" clip-rule="evenodd" fill="#2156A4" d="M32.708,99.41c-0.155-0.093-0.303-0.202-0.467-0.274
		c-2.97-1.324-3.783-4.588-1.711-7.099c3.717-4.504,7.472-8.978,11.212-13.465c7.75-9.293,15.494-18.593,23.268-27.867
		c0.537-0.642,0.493-1.009-0.021-1.623C53.749,35.639,42.526,22.184,31.327,8.708c-0.717-0.864-1.442-1.835-1.772-2.88
		c-0.613-1.944,0.422-4.002,2.192-4.932c1.829-0.961,3.982-0.582,5.394,1.073c2.528,2.961,5,5.97,7.494,8.96
		c9.828,11.788,19.66,23.57,29.465,35.374c0.67,0.808,1.136,1.785,1.695,2.684c0,0.611,0,1.222,0,1.833
		c-0.534,0.868-0.974,1.816-1.619,2.592C62.135,67.895,50.061,82.35,38.016,96.829c-0.917,1.104-1.879,2.077-3.246,2.581
		C34.082,99.41,33.395,99.41,32.708,99.41z"/>
</g>
</svg>
