<?xml version="1.0" encoding="utf-8"?>
<!-- Generator: Adobe Illustrator 16.0.0, SVG Export Plug-In . SVG Version: 6.00 Build 0)  -->
<!DOCTYPE svg PUBLIC "-//W3C//DTD SVG 1.1//EN" "http://www.w3.org/Graphics/SVG/1.1/DTD/svg11.dtd">
<svg version="1.1" id="Шар_1" xmlns="http://www.w3.org/2000/svg" xmlns:xlink="http://www.w3.org/1999/xlink" x="0px" y="0px"
	 width="155.933px" height="156.059px" viewBox="0 0 155.933 156.059" enable-background="new 0 0 155.933 156.059"
	 xml:space="preserve">
<path fill="#2156A4" d="M155.801,73.712c-1.969-34.838-26.404-63.141-58.785-71.29c-5.125-1.29-10.332-2.076-15.627-2.24
	C80.981,0.169,80.575,0.063,80.167,0c-1.424,0-2.848,0-4.273,0c-1.473,0.126-2.945,0.26-4.418,0.377
	c-11.244,0.901-21.83,4.056-31.592,9.684C20.101,21.464,7.486,38.329,2.062,60.519c-1.128,4.611-1.737,9.312-1.881,14.067
	C0.171,74.963,0.062,75.339,0,75.714c0,1.543,0,3.087,0,4.632c0.125,1.383,0.258,2.764,0.371,4.146
	c1.22,14.819,6.253,28.223,15.166,40.102c11.038,14.711,25.523,24.379,43.338,29.008c5.117,1.33,10.326,2.092,15.615,2.271
	c0.469,0.018,0.936,0.123,1.402,0.186c1.426,0,2.85,0,4.273,0c1.443-0.125,2.885-0.262,4.33-0.375
	c10.91-0.861,21.211-3.865,30.752-9.201c19.543-10.934,32.297-27.256,38.18-48.885C155.555,89.78,156.256,81.78,155.801,73.712z
	 M77.079,112.071c-2.291,2.082-4.854,1.461-6.506-1.178c-1.438-2.297-1.637-4.863-1.23-7.395c1.508-9.4,3.16-18.775,4.752-28.164
	c0.102-0.607,0.375-0.973,0.973-1.216c1.941-0.786,3.855-1.64,6.027-2.572c-0.605,2.362-1.141,4.448-1.674,6.531
	c-1.666,6.5-3.379,12.991-4.973,19.51c-0.617,2.525-1.107,5.105-0.646,7.734c0.105,0.605,0.277,1.219,0.539,1.771
	c0.689,1.461,1.828,1.873,3.207,1.037c1.08-0.654,2.047-1.506,3.018-2.326c0.836-0.703,1.605-1.486,2.471-2.293
	c0.287,0.252,0.656,0.576,1.215,1.068C81.834,107.133,79.61,109.77,77.079,112.071z M82.92,52.623
	c-2.211-0.004-4.055-1.916-4.051-4.2c0.002-2.323,1.801-4.119,4.109-4.104c2.309,0.015,3.971,1.735,3.975,4.116
	C86.958,50.779,85.176,52.627,82.92,52.623z"/>
</svg>
