<?xml version="1.0" encoding="utf-8"?>
<!-- Generator: Adobe Illustrator 16.0.0, SVG Export Plug-In . SVG Version: 6.00 Build 0)  -->
<!DOCTYPE svg PUBLIC "-//W3C//DTD SVG 1.1//EN" "http://www.w3.org/Graphics/SVG/1.1/DTD/svg11.dtd">
<svg version="1.1" id="Шар_1" xmlns="http://www.w3.org/2000/svg" xmlns:xlink="http://www.w3.org/1999/xlink" x="0px" y="0px"
	 width="140.929px" height="137.171px" viewBox="0 0 140.929 137.171" enable-background="new 0 0 140.929 137.171"
	 xml:space="preserve">
<path fill-rule="evenodd" clip-rule="evenodd" fill="#C9C7CD" d="M0,75.163c0.085-0.251,0.193-0.496,0.252-0.753
	c1.997-8.841,12.553-12.19,19.455-6.333c3.961,3.362,8.243,6.348,12.394,9.485c6.306,4.768,12.621,9.521,18.932,14.278
	c0.311,0.233,0.629,0.455,0.992,0.719c3.168-4.146,6.305-8.244,9.438-12.346c19.215-25.16,38.428-50.319,57.641-75.479
	c1.916-2.511,4.43-4.023,7.553-4.524c0.223-0.036,0.434-0.14,0.65-0.211c0.705,0,1.41,0,2.115,0
	c0.299,0.076,0.596,0.159,0.898,0.229c4.828,1.114,8.297,3.83,10.039,8.559c0.24,0.653,0.383,1.344,0.57,2.018
	c0,1.018,0,2.035,0,3.054c-0.721,1.753-1.189,3.67-2.201,5.235c-15.768,24.407-31.607,48.77-47.432,73.142
	c-8.348,12.858-16.703,25.711-25.039,38.579c-1.852,2.857-4.158,5.082-7.605,5.826c-0.986,0.213-1.99,0.355-2.984,0.531
	c-0.783,0-1.566,0-2.35,0c-3.684-0.559-6.588-2.424-9.014-5.205C31.311,117.08,18.308,102.201,5.271,87.353
	C2.992,84.758,0.686,82.228,0,78.686C0,77.512,0,76.337,0,75.163z"/>
</svg>
