<?xml version="1.0" encoding="utf-8"?>
<!-- Generator: Adobe Illustrator 16.0.0, SVG Export Plug-In . SVG Version: 6.00 Build 0)  -->
<!DOCTYPE svg PUBLIC "-//W3C//DTD SVG 1.1//EN" "http://www.w3.org/Graphics/SVG/1.1/DTD/svg11.dtd">
<svg version="1.1" id="Шар_1" xmlns="http://www.w3.org/2000/svg" xmlns:xlink="http://www.w3.org/1999/xlink" x="0px" y="0px"
	 width="91.115px" height="138.243px" viewBox="0 0 91.115 138.243" enable-background="new 0 0 91.115 138.243"
	 xml:space="preserve">
<g>
	<path fill="#2156A4" d="M91.115,9.426c0,39.797,0,79.594,0,119.391c-0.1,0.328-0.207,0.654-0.297,0.986
		c-0.934,3.422-2.957,5.951-6.196,7.434c-0.936,0.428-1.953,0.676-2.933,1.006c-24.088,0-48.176,0-72.264,0
		c-0.285-0.09-0.566-0.197-0.855-0.271c-3.599-0.918-6.181-3.062-7.684-6.453c-0.382-0.863-0.596-1.799-0.887-2.701
		C0,89.02,0,49.223,0,9.426c0.1-0.327,0.21-0.651,0.299-0.98c0.929-3.428,2.954-5.958,6.197-7.439C7.431,0.579,8.446,0.33,9.426,0
		c24.088,0,48.176,0,72.264,0c0.285,0.091,0.567,0.195,0.857,0.27c3.597,0.918,6.174,3.063,7.678,6.453
		C90.607,7.586,90.822,8.522,91.115,9.426z M84.738,109.909c0-29.352,0-58.6,0-87.811c-26.198,0-52.304,0-78.385,0
		c0,29.321,0,58.536,0,87.811C32.497,109.909,58.571,109.909,84.738,109.909z M6.284,116.313c0,3.627-0.016,7.193,0.005,10.758
		c0.018,2.973,1.945,4.883,4.953,4.885c22.863,0.008,45.726,0.006,68.588,0c3.074-0.002,4.982-1.914,4.997-4.977
		c0.017-3.229,0.007-6.457-0.001-9.686c0-0.332-0.06-0.662-0.09-0.98C58.562,116.313,32.487,116.313,6.284,116.313z M84.831,15.646
		c0-1.271,0-2.481,0-3.691c-0.001-3.991-1.663-5.67-5.617-5.67c-22.426-0.001-44.853,0-67.278,0c-0.393,0-0.786-0.013-1.178,0.008
		c-2.14,0.113-3.981,1.45-4.272,3.557c-0.262,1.9-0.055,3.866-0.055,5.797C32.555,15.646,58.629,15.646,84.831,15.646z"/>
	<path fill-rule="evenodd" clip-rule="evenodd" fill="#2156A4" d="M72.264,54.68c-3.578,3.578-6.876,6.879-10.176,10.178
		c-5.121,5.123-10.24,10.244-15.364,15.363c-1.844,1.842-3.37,1.898-5.359,0.203c-2.752-2.348-5.495-4.703-8.306-7.109
		c-0.421,0.365-0.816,0.699-1.199,1.047c-4.324,3.936-8.646,7.871-12.969,11.807c-0.29,0.266-0.578,0.531-0.877,0.787
		c-1.537,1.312-3.488,1.275-4.677-0.086c-1.149-1.316-0.982-3.24,0.449-4.559c2.503-2.307,5.03-4.584,7.548-6.875
		c3.002-2.729,6.001-5.461,9.007-8.186c1.901-1.725,3.317-1.73,5.288-0.045c2.714,2.322,5.43,4.641,7.99,6.828
		c7.959-7.957,15.838-15.836,23.77-23.766c-2.502,0-5.055,0.027-7.605-0.01c-1.627-0.023-3.062-1.363-3.217-2.895
		c-0.139-1.374,0.902-2.855,2.328-3.251c0.371-0.104,0.774-0.12,1.163-0.121c4.974-0.007,9.947-0.012,14.921-0.002
		c2.258,0.005,3.561,1.312,3.565,3.58c0.011,4.975,0.011,9.947-0.001,14.922c-0.004,2.01-1.329,3.484-3.102,3.506
		c-1.83,0.023-3.166-1.463-3.176-3.559C72.256,59.967,72.264,57.497,72.264,54.68z"/>
	<path fill-rule="evenodd" clip-rule="evenodd" fill="#2156A4" d="M45.495,128.815c-2.607-0.031-4.694-2.189-4.648-4.805
		c0.046-2.609,2.213-4.678,4.834-4.617c2.552,0.061,4.601,2.176,4.587,4.736C50.255,126.735,48.103,128.846,45.495,128.815z"/>
</g>
</svg>
