<?xml version="1.0" encoding="utf-8"?>
<!-- Generator: Adobe Illustrator 16.0.0, SVG Export Plug-In . SVG Version: 6.00 Build 0)  -->
<!DOCTYPE svg PUBLIC "-//W3C//DTD SVG 1.1//EN" "http://www.w3.org/Graphics/SVG/1.1/DTD/svg11.dtd">
<svg version="1.1" id="Шар_1" xmlns="http://www.w3.org/2000/svg" xmlns:xlink="http://www.w3.org/1999/xlink" x="0px" y="0px"
	 width="100px" height="100px" viewBox="0 0 100 100" enable-background="new 0 0 100 100" xml:space="preserve">
<g>
	<path fill="#2156A4" d="M56.625,79.338c-0.425,0-0.85,0-1.275,0c-0.409-0.087-0.819-0.172-1.229-0.258
		c-2.129-0.449-3.756-1.617-4.893-3.524c-2.119,1.267-4.333,1.921-6.743,1.707c-2.459-0.217-4.483-1.221-5.735-3.402
		c-0.947,0.327-1.793,0.664-2.664,0.914c-4.268,1.227-8.639,1.141-13.017,1.02c-5.071-0.138-10.147-0.207-15.184,0.55
		c-1.465,0.221-2.627-0.178-3.629-1.198c-0.919-0.935-0.986-2.142-0.027-3.038c0.48-0.449,1.172-0.834,1.812-0.921
		c2.103-0.282,4.224-0.545,6.342-0.576c5.223-0.078,10.446-0.021,15.669-0.022c4.202,0,8.079-1.071,11.32-3.814
		c2.264-1.915,4.424-3.966,6.496-6.089c0.894-0.916,1.79-1.657,2.979-2.136c3.806-1.53,7.563-3.19,10.784-5.79
		c1.021-0.824,1.905-1.866,2.684-2.931c0.814-1.114,0.879-2.42,0.039-3.578c-0.758-1.047-1.964-0.961-3.013-0.702
		c-1.727,0.428-3.456,0.933-5.093,1.622c-7.794,3.283-15.557,6.641-23.333,9.966c-0.191,0.082-0.406,0.13-0.613,0.148
		c-1.276,0.118-2.642-0.723-2.968-1.814c-0.367-1.228,0.338-2.74,1.627-3.319c1.465-0.659,2.951-1.275,4.449-1.853
		c0.604-0.232,0.787-0.561,0.785-1.201c-0.024-6.925-0.015-13.851-0.015-20.775c0-0.27,0-0.539,0-0.817
		c-0.883-0.389-1.716-0.407-2.499,0.033c-1.002,0.564-2.012,1.133-2.936,1.813c-1.368,1.006-2.634,2.152-3.996,3.169
		c-5.398,4.034-10.814,8.046-16.23,12.057c-0.828,0.613-1.652,1.252-2.552,1.743c-1.369,0.748-2.892,0.303-3.655-0.95
		c-0.75-1.23-0.403-2.622,0.897-3.574c4.58-3.354,9.166-6.702,13.74-10.064c3.448-2.536,6.869-5.109,10.327-7.632
		c2.408-1.755,5.027-2.804,8.099-2.217c0.237,0.045,0.645-0.156,0.791-0.368c2.179-3.159,5.188-4.585,9-4.578
		c14.186,0.028,28.369,0.011,42.554,0.011c1.366,0,2.734-0.029,4.1,0.019c4.551,0.157,8.471,3.222,9.739,7.588
		c0.167,0.577,0.293,1.167,0.438,1.75c0,10.084,0,20.168,0,30.252c-0.052,0.104-0.129,0.205-0.149,0.316
		c-0.975,5.426-4.98,8.801-10.479,8.814c-3.095,0.008-6.19,0.017-9.284-0.009c-0.633-0.006-0.943,0.121-1.119,0.816
		c-0.563,2.224-1.549,4.257-2.976,6.076c-2.736,3.491-7.882,5.03-11.936,2.836c-1.337,1.461-2.875,2.679-4.8,3.297
		C58.401,78.979,57.504,79.131,56.625,79.338z M93.999,34.513c-18.838,0-37.558,0-56.307,0c0,4.336,0,8.604,0,12.94
		c0.195-0.059,0.338-0.087,0.468-0.145c3.798-1.681,7.606-3.34,11.388-5.058c2.64-1.2,5.316-2.212,8.254-2.36
		c4.521-0.229,7.898,2.369,8.568,6.802c0.479,3.162-0.777,5.83-2.85,8.141c-1.785,1.992-3.996,3.437-6.299,4.749
		c-0.274,0.157-0.543,0.324-0.997,0.596c0.421,0.023,0.621,0.044,0.821,0.044c10.751,0.001,21.502,0.006,32.253-0.003
		c2.782-0.002,4.756-1.903,4.755-4.544c0-6.742-0.006-13.484-0.013-20.226C94.041,35.152,94.016,34.856,93.999,34.513z
		 M37.79,29.146c19.001,0,37.808,0,56.605,0c0.78-4.383-1.972-6.798-5.459-6.774c-15.177,0.103-30.355,0.043-45.535,0.046
		c-0.425,0-0.851-0.001-1.274,0.034c-2.025,0.169-3.691,1.554-4.098,3.554C37.829,27.001,37.866,28.044,37.79,29.146z
		 M54.451,65.534c-0.604,2.116-1.166,4.242-0.752,6.491c0.137,0.743,0.491,1.3,1.282,1.474c2.225,0.486,5.371-1.443,5.793-3.687
		c0.262-1.385,0.26-2.82,0.38-4.278C58.938,65.534,56.735,65.534,54.451,65.534z M73.226,65.823
		c-0.137-0.069-0.185-0.115-0.234-0.115c-1.24-0.009-2.48-0.017-3.721-0.017c-2.594-0.003-2.594-0.001-2.943,2.579
		c-0.343,2.519,0.713,3.332,3.074,2.362c0.277-0.115,0.553-0.253,0.798-0.425C71.75,69.114,72.53,67.506,73.226,65.823z
		 M41.269,71.183c1.075,1.01,2.404,0.788,3.666,0.345c2.689-0.947,3.463-3.141,3.486-5.92c-0.535,0.111-1.217,0.05-1.569,0.36
		C44.977,67.626,43.184,69.376,41.269,71.183z"/>
</g>
</svg>
