<?xml version="1.0" encoding="utf-8"?>
<!-- Generator: Adobe Illustrator 16.0.0, SVG Export Plug-In . SVG Version: 6.00 Build 0)  -->
<!DOCTYPE svg PUBLIC "-//W3C//DTD SVG 1.1//EN" "http://www.w3.org/Graphics/SVG/1.1/DTD/svg11.dtd">
<svg version="1.1" id="Шар_1" xmlns="http://www.w3.org/2000/svg" xmlns:xlink="http://www.w3.org/1999/xlink" x="0px" y="0px"
	 width="100px" height="100px" viewBox="0 0 100 100" enable-background="new 0 0 100 100" xml:space="preserve">
<g>
	<path fill-rule="evenodd" clip-rule="evenodd" fill="#2156A4" d="M3.367,48.846C4.024,48,4.562,47.018,5.356,46.331
		c4.492-3.89,9.017-7.743,13.605-11.517c0.738-0.607,1.847-1.01,2.799-1.041c1.099-0.035,1.907,0.824,2.225,1.928
		c0.349,1.209-0.021,2.241-0.975,3.053c-2.563,2.179-5.133,4.351-7.697,6.529c-0.323,0.274-0.628,0.569-1.212,1.1
		c0.782,0,1.238,0,1.696,0c12.454,0,24.909-0.001,37.364,0c2.548,0,3.911,0.99,3.907,2.827c-0.004,1.848-1.344,2.813-3.911,2.813
		c-12.455,0-24.91,0-37.364,0c-0.458,0-0.915,0-1.771,0c2.155,1.834,4.003,3.405,5.851,4.977c1.032,0.877,2.083,1.732,3.094,2.634
		c1.333,1.188,1.516,2.826,0.498,4.073c-1.035,1.266-2.781,1.387-4.188,0.201c-4.88-4.108-9.751-8.227-14.588-12.387
		c-0.564-0.486-0.887-1.253-1.322-1.889C3.367,49.371,3.367,49.108,3.367,48.846z"/>
	<path fill-rule="evenodd" clip-rule="evenodd" fill="#2156A4" d="M35.433,5.708c0,0.633,0,1.148,0,1.664
		c0,7.518,0.006,15.035-0.005,22.554c-0.002,1.925-0.948,3.086-2.545,3.212c-1.733,0.136-3.021-1.008-3.062-2.812
		c-0.046-2.01-0.015-4.021-0.015-6.031c-0.001-6.95-0.004-13.899,0.002-20.85c0.002-2.473,0.948-3.441,3.381-3.441
		c21.156-0.004,42.311-0.004,63.467,0c2.35,0,3.339,0.987,3.339,3.358c0.007,31.035,0.007,62.07,0,93.105
		c-0.001,2.343-1.006,3.314-3.382,3.316c-21.156,0.004-42.312,0.004-63.467-0.002c-2.259,0-3.329-0.974-3.333-3.089
		c-0.015-9.003-0.001-18.008-0.011-27.014c-0.002-1.313,0.488-2.313,1.715-2.824c1.097-0.456,2.283-0.377,3,0.567
		c0.53,0.701,0.871,1.726,0.879,2.609c0.067,7.474,0.039,14.949,0.039,22.423c0,0.512,0,1.021,0,1.618c19.675,0,39.193,0,58.817,0
		c0-29.44,0-58.863,0-88.364C74.691,5.708,55.173,5.708,35.433,5.708z"/>
</g>
</svg>
