<?xml version="1.0" encoding="utf-8"?>
<!-- Generator: Adobe Illustrator 16.0.0, SVG Export Plug-In . SVG Version: 6.00 Build 0)  -->
<!DOCTYPE svg PUBLIC "-//W3C//DTD SVG 1.1//EN" "http://www.w3.org/Graphics/SVG/1.1/DTD/svg11.dtd">
<svg version="1.1" id="Шар_1" xmlns="http://www.w3.org/2000/svg" xmlns:xlink="http://www.w3.org/1999/xlink" x="0px" y="0px"
	 width="106.948px" height="154.997px" viewBox="0 0 106.948 154.997" enable-background="new 0 0 106.948 154.997"
	 xml:space="preserve">
<g>
	<path fill="#2156A4" d="M57.091,154.997c-2.411,0-4.822,0-7.233,0c-0.284-0.074-0.564-0.191-0.853-0.215
		c-7.344-0.572-14.296-2.564-20.721-6.137c-14.751-8.207-23.925-20.58-27.29-37.168c-0.441-2.176-0.668-4.396-0.994-6.596
		c0-2.238,0-4.479,0-6.717c0.103-0.762,0.211-1.521,0.307-2.285c2-16.084,9.606-28.832,22.803-38.232
		c0.722-0.515,0.968-1.031,0.965-1.889c-0.027-9.252-0.053-18.505,0.011-27.757c0.015-2.051,0.134-4.161,0.626-6.14
		C27.461,10.806,34.76,4.184,45.479,1.054c1.678-0.49,3.434-0.71,5.154-1.054c1.895,0,3.788,0,5.683,0
		c0.924,0.17,1.846,0.346,2.771,0.508c12.779,2.251,24.076,12.923,23.83,27.889c-0.149,9.078-0.014,18.16-0.05,27.24
		c-0.004,0.961,0.276,1.52,1.08,2.091c11.418,8.119,18.773,18.976,21.762,32.699c0.573,2.631,0.835,5.33,1.24,7.996
		c0,2.066,0,4.135,0,6.201c-0.076,0.371-0.159,0.742-0.227,1.115c-0.624,3.502-0.864,7.127-1.93,10.488
		c-6.482,20.457-20.254,33.098-41.24,37.766C61.429,154.465,59.246,154.668,57.091,154.997z M53.359,149.622
		c26.519,0.119,48.095-21.389,48.193-48.043c0.096-26.26-21.501-48.012-47.777-48.12C27.271,53.351,5.508,74.838,5.394,101.227
		C5.278,127.926,26.661,149.5,53.359,149.622z M29.435,53.809c16.109-7.625,32.044-7.59,48.022-0.034
		c0.023-0.437,0.053-0.729,0.053-1.022c0.001-8.524,0.008-17.048-0.004-25.572c-0.007-4.26-1.306-8.124-3.725-11.608
		c-6.176-8.896-18.354-12.53-29.024-8.738C36.414,9.797,28.991,17.641,29.41,28.559c0.152,3.998,0.024,8.007,0.024,12.01
		C29.435,44.915,29.435,49.261,29.435,53.809z"/>
	<path fill-rule="evenodd" clip-rule="evenodd" fill="#2156A4" d="M64.137,98.918c0,2.709,0.05,5.422-0.011,8.131
		c-0.122,5.494-4.242,10.002-9.505,10.475c-5.577,0.502-10.406-3.006-11.604-8.447c-0.119-0.541-0.188-1.107-0.189-1.66
		c-0.015-5.68-0.103-11.361,0.016-17.037c0.108-5.186,4.058-9.408,9.162-10.086c5.211-0.693,10.081,2.336,11.614,7.33
		c0.348,1.129,0.467,2.359,0.5,3.551c0.072,2.578,0.022,5.162,0.022,7.744C64.141,98.918,64.139,98.918,64.137,98.918z
		 M48.104,98.874c0,2.535-0.014,5.072,0.004,7.609c0.022,3.342,2.238,5.711,5.331,5.73c3.091,0.02,5.376-2.35,5.393-5.67
		c0.026-5.115,0.027-10.232,0-15.348c-0.018-3.311-2.322-5.701-5.396-5.682c-3.066,0.018-5.306,2.422-5.328,5.75
		C48.09,93.799,48.104,96.336,48.104,98.874z"/>
</g>
</svg>
