<?xml version="1.0" encoding="utf-8"?>
<!-- Generator: Adobe Illustrator 16.0.0, SVG Export Plug-In . SVG Version: 6.00 Build 0)  -->
<!DOCTYPE svg PUBLIC "-//W3C//DTD SVG 1.1//EN" "http://www.w3.org/Graphics/SVG/1.1/DTD/svg11.dtd">
<svg version="1.1" id="Шар_1" xmlns="http://www.w3.org/2000/svg" xmlns:xlink="http://www.w3.org/1999/xlink" x="0px" y="0px"
	 width="72.1px" height="94.255px" viewBox="0 0 72.1 94.255" enable-background="new 0 0 72.1 94.255" xml:space="preserve">
<g>
	<path fill-rule="evenodd" clip-rule="evenodd" fill="#2156A4" d="M0,33.534c0.31-1.846,0.535-3.711,0.942-5.536
		c3.234-14.496,15.25-25.57,29.937-27.635C50.381-2.38,68.267,10.699,71.597,30.136c3.32,19.382-10.181,38.265-29.567,41.351
		C22.855,74.539,5.11,62.569,0.871,43.689C0.474,41.924,0.286,40.113,0,38.322C0,36.727,0,35.13,0,33.534z M59.444,56.815
		C70.307,44.841,70.416,25.13,57.24,12.913C44.384,0.993,23.946,2.074,12.484,15.264c-11.827,13.612-9.201,32.373,0.932,42.38
		c1.725-1.913,3.981-3.041,6.241-4.157c1.285-0.634,2.609-1.189,3.899-1.817c1.545-0.752,2.906-1.72,3.706-3.319
		c0.397-0.794,0.373-1.393-0.293-2.125c-5.294-5.841-5.643-15.109-0.863-21.374c5.32-6.972,14.995-7.212,20.498-0.511
		c5.29,6.445,5.076,15.987-0.573,22.106c-0.771,0.835-0.688,1.431-0.132,2.22c0.996,1.411,2.408,2.235,3.951,2.91
		C53.204,53.04,56.668,54.303,59.444,56.815z M16.762,60.72c12.009,9.736,29.77,8.142,39.325-0.79
		c-0.687-0.447-1.313-0.949-2.017-1.299c-1.767-0.88-3.547-1.745-5.36-2.52c-3.12-1.33-5.916-3.013-7.31-6.062
		c-1.717,0.248-3.316,0.674-4.909,0.656c-1.62-0.018-3.233-0.476-4.918-0.753c-1.271,3.04-3.801,4.856-6.792,6.221
		c-2.084,0.951-4.124,2.007-6.145,3.088C17.959,59.623,17.404,60.212,16.762,60.72z M45.809,35.159
		c0.031-2.92-0.856-5.53-2.686-7.798c-3.439-4.266-9.158-4.408-12.822-0.339c-4.007,4.448-3.905,12.034,0.22,16.377
		c3.495,3.68,8.725,3.687,12.194-0.025C44.863,41.072,45.771,38.272,45.809,35.159z"/>
	<path fill-rule="evenodd" clip-rule="evenodd" fill="#2156A4" d="M21.646,94.255c-0.801-0.537-1.555-1.095-1.57-2.208
		c-0.016-1.273,0.852-2.272,2.122-2.383c0.158-0.013,0.319-0.006,0.479-0.006c9.283,0,18.565-0.003,27.849,0.002
		c1.798,0,3.008,1.311,2.481,2.856c-0.227,0.671-0.971,1.165-1.48,1.738C41.566,94.255,31.606,94.255,21.646,94.255z"/>
	<path fill-rule="evenodd" clip-rule="evenodd" fill="#2156A4" d="M36.584,79.315c7.272,0,14.546,0.006,21.818-0.009
		c0.968-0.001,1.765,0.271,2.286,1.113c0.878,1.416-0.025,3.261-1.688,3.474c-0.188,0.025-0.382,0.018-0.573,0.018
		c-14.545,0-29.091,0.001-43.637-0.001c-1.558,0-2.549-0.843-2.612-2.19c-0.064-1.396,0.954-2.397,2.491-2.4
		c4.561-0.012,9.123-0.004,13.684-0.004C31.098,79.315,33.84,79.315,36.584,79.315z"/>
</g>
</svg>
