<?xml version="1.0" encoding="utf-8"?>
<!-- Generator: Adobe Illustrator 16.0.0, SVG Export Plug-In . SVG Version: 6.00 Build 0)  -->
<!DOCTYPE svg PUBLIC "-//W3C//DTD SVG 1.1//EN" "http://www.w3.org/Graphics/SVG/1.1/DTD/svg11.dtd">
<svg version="1.1" id="Шар_1" xmlns="http://www.w3.org/2000/svg" xmlns:xlink="http://www.w3.org/1999/xlink" x="0px" y="0px"
	 width="141.607px" height="132.993px" viewBox="0 0 141.607 132.993" enable-background="new 0 0 141.607 132.993"
	 xml:space="preserve">
<g>
	<path fill-rule="evenodd" clip-rule="evenodd" fill="#C9C7CD" d="M141.607,132.389c-5.443-0.02-10.887-0.039-16.328-0.059
		c-0.504-0.002-1.008,0-1.596,0c0-5.986,0-11.84,0-17.947c5.973,0,11.947,0,17.924,0
		C141.607,120.385,141.607,126.387,141.607,132.389z"/>
	<path fill-rule="evenodd" clip-rule="evenodd" fill="#C9C7CD" d="M83.807,43.072c-0.607,0.953-1.129,1.781-1.662,2.601
		C65.5,71.304,48.857,96.935,32.186,122.549c-0.361,0.557-0.99,1.098-1.607,1.307c-8.686,2.934-17.389,5.809-26.09,8.691
		c-0.471,0.158-0.957,0.27-1.59,0.445c-0.229-2.193-0.451-4.221-0.654-6.25c-0.756-7.59-1.523-15.18-2.236-22.771
		c-0.053-0.578,0.154-1.279,0.473-1.773c14.357-22.158,28.74-44.3,43.119-66.445c2.521-3.881,5.041-7.766,7.562-11.646
		c0.324-0.5,0.662-0.988,1.045-1.557C62.736,29.389,73.191,36.177,83.807,43.072z"/>
	<path fill-rule="evenodd" clip-rule="evenodd" fill="#C9C7CD" d="M88.418,36.043c-10.564-6.944-20.971-13.785-31.451-20.674
		c0.186-0.354,0.312-0.657,0.488-0.931c2.422-3.739,4.818-7.496,7.305-11.193c0.377-0.562,1.117-1.05,1.781-1.223
		c2.855-0.74,5.742-1.379,8.633-1.984c0.48-0.1,1.133-0.001,1.543,0.26c6.129,3.933,12.238,7.897,18.324,11.896
		c0.396,0.262,0.744,0.839,0.811,1.313c0.402,2.883,0.727,5.776,1.043,8.671c0.037,0.355-0.027,0.798-0.217,1.089
		C93.977,27.483,91.244,31.683,88.418,36.043z"/>
	<path fill-rule="evenodd" clip-rule="evenodd" fill="#C9C7CD" d="M69.24,132.231c0-5.957,0-11.814,0-17.754
		c0.438-0.035,0.811-0.092,1.182-0.092c5.145-0.006,10.287,0.004,15.432-0.012c0.766-0.004,1.303,0.037,1.297,1.057
		c-0.037,5.357-0.021,10.717-0.027,16.074c0,0.211-0.057,0.422-0.1,0.727C81.125,132.231,75.236,132.231,69.24,132.231z"/>
	<path fill-rule="evenodd" clip-rule="evenodd" fill="#C9C7CD" d="M114.24,114.467c0,6.02,0,11.869,0,17.793
		c-5.951,0-11.834,0-17.787,0c0-5.943,0-11.826,0-17.793C102.396,114.467,108.275,114.467,114.24,114.467z"/>
</g>
</svg>
