<?xml version="1.0" encoding="utf-8"?>
<!-- Generator: Adobe Illustrator 16.0.0, SVG Export Plug-In . SVG Version: 6.00 Build 0)  -->
<!DOCTYPE svg PUBLIC "-//W3C//DTD SVG 1.1//EN" "http://www.w3.org/Graphics/SVG/1.1/DTD/svg11.dtd">
<svg version="1.1" id="Шар_1" xmlns="http://www.w3.org/2000/svg" xmlns:xlink="http://www.w3.org/1999/xlink" x="0px" y="0px"
	 width="100.885px" height="173.946px" viewBox="0 0 100.885 173.946" enable-background="new 0 0 100.885 173.946"
	 xml:space="preserve">
<g>
	<path fill="#2156A4" d="M100.885,18.554c0,45.61,0,91.221,0,136.833c-0.086,0.322-0.205,0.639-0.254,0.965
		c-1.486,10.121-10.027,17.576-20.215,17.584c-19.992,0.016-39.983,0.014-59.976,0c-9.169-0.006-17.259-6.203-19.692-15.051
		c-0.291-1.059-0.501-2.139-0.748-3.209c0-45.803,0-91.607,0-137.412c0.082-0.219,0.203-0.431,0.242-0.656
		C1.718,9.004,6.725,3.47,14.927,0.728C15.826,0.427,16.764,0.239,17.684,0C39.522,0,61.361,0,83.2,0
		c0.216,0.087,0.424,0.21,0.647,0.257c8.399,1.746,13.781,6.798,16.314,14.937C100.502,16.282,100.648,17.432,100.885,18.554z
		 M5.805,140.236c29.842,0,59.525,0,89.22,0c0-34.928,0-69.768,0-104.633c-29.794,0-59.477,0-89.22,0
		C5.805,70.511,5.805,105.324,5.805,140.236z M95.105,30.936c0-4.125,0.09-8.086-0.021-12.04
		c-0.167-6.015-4.129-11.071-9.934-12.627c-1.699-0.455-3.526-0.603-5.295-0.606C60.344,5.621,40.832,5.635,21.32,5.642
		c-1.013,0-2.028,0.044-3.038,0.127C12.337,6.258,7.113,10.457,6.236,16.335c-0.71,4.769-0.477,9.678-0.664,14.601
		C35.603,30.936,65.28,30.936,95.105,30.936z M95.274,144.976c-30.048,0-59.727,0-89.424,0c0,3.809-0.329,7.553,0.077,11.215
		c0.606,5.48,3.698,9.4,8.986,11.197c1.919,0.652,4.068,0.863,6.115,0.869c19.609,0.062,39.219,0.039,58.829,0.033
		c0.868,0,1.738-0.039,2.604-0.109c6.244-0.502,11.383-4.846,12.282-11.01C95.325,153.197,95.123,149.111,95.274,144.976z"/>
	<path fill-rule="evenodd" clip-rule="evenodd" fill="#2156A4" d="M67.176,17.799c0,1.452,0,2.796,0,4.273
		c-11.054,0-22.072,0-33.175,0c0-1.393,0-2.774,0-4.273C44.989,17.799,56.012,17.799,67.176,17.799z"/>
	<path fill-rule="evenodd" clip-rule="evenodd" fill="#2156A4" d="M50.385,162.142c-3.159-0.033-5.705-2.629-5.646-5.752
		c0.061-3.139,2.663-5.672,5.79-5.633c3.119,0.039,5.699,2.678,5.65,5.777C56.131,159.675,53.547,162.177,50.385,162.142z"/>
</g>
</svg>
