<?xml version="1.0" encoding="utf-8"?>
<!-- Generator: Adobe Illustrator 16.0.0, SVG Export Plug-In . SVG Version: 6.00 Build 0)  -->
<!DOCTYPE svg PUBLIC "-//W3C//DTD SVG 1.1//EN" "http://www.w3.org/Graphics/SVG/1.1/DTD/svg11.dtd">
<svg version="1.1" id="Шар_1" xmlns="http://www.w3.org/2000/svg" xmlns:xlink="http://www.w3.org/1999/xlink" x="0px" y="0px"
	 width="80.409px" height="120.925px" viewBox="0 0 80.409 120.925" enable-background="new 0 0 80.409 120.925"
	 xml:space="preserve">
<g>
	<path fill-rule="evenodd" clip-rule="evenodd" fill="#2156A4" d="M18.831,120.925c-1.208-0.264-2.429-0.479-3.621-0.801
		c-2.258-0.607-4.321-1.627-6.178-3.064c-2.043-1.584-4.119-3.125-6.165-4.707c-2.777-2.145-3.618-5.441-2.163-8.631
		c2.894-6.348,5.814-12.68,8.733-19.016c0.763-1.654,1.864-3.025,3.481-3.924c1.659-0.924,3.348-1.059,5.11-0.248
		c2.924,1.344,5.901,2.58,8.795,3.986c2.529,1.229,4.998,1.139,7.469,0.002c4.585-2.111,7.584-5.781,9.735-10.209
		c1.523-3.135,2.934-6.327,4.395-9.494c1.417-3.076,2.845-6.146,4.248-9.229c1.977-4.341,2.385-8.829,1.248-13.464
		c-0.652-2.661-2.229-4.531-4.721-5.648c-2.693-1.206-5.382-2.422-8.072-3.633c-4.048-1.822-5.378-5.311-3.545-9.404
		c1.287-2.877,2.628-5.729,3.944-8.594c1.43-3.107,2.961-6.172,4.257-9.334c1.147-2.798,2.9-4.78,5.9-5.515c0.806,0,1.612,0,2.418,0
		c1.857,0.403,3.698,0.924,5.575,1.19c7.997,1.137,13.543,5.583,16.898,12.738c1.239,2.643,2.07,5.538,2.676,8.406
		c1.905,9.013,1.259,18.029-0.467,26.995c-2.241,11.653-6.393,22.625-12.03,33.039c-5.456,10.078-12.08,19.275-20.701,26.92
		c-4.935,4.375-10.319,8.066-16.65,10.127c-2.119,0.689-4.356,1.016-6.539,1.51C21.518,120.925,20.174,120.925,18.831,120.925z
		 M75.336,33.056c-0.061-1.081-0.112-2.996-0.285-4.9c-0.393-4.305-1.309-8.509-3.198-12.407c-2.171-4.48-5.526-7.758-10.49-9.003
		c-2.534-0.637-5.128-1.034-7.696-1.531c-1.513-0.292-2.136,0.031-2.784,1.438c-1.544,3.351-3.083,6.703-4.624,10.055
		c-1.345,2.924-2.697,5.846-4.034,8.773c-0.657,1.44-0.396,2.126,0.998,2.751c2.784,1.249,5.576,2.48,8.349,3.756
		c3.628,1.669,6.034,4.44,7.094,8.283c1.57,5.692,1.304,11.328-1.1,16.739c-2.966,6.681-6,13.335-9.172,19.919
		c-2.569,5.334-6.32,9.656-11.823,12.182c-3.926,1.803-7.875,1.945-11.852,0.023c-2.717-1.312-5.518-2.449-8.241-3.746
		c-0.77-0.365-1.266-0.219-1.736,0.357c-0.251,0.309-0.487,0.646-0.653,1.006C11.195,93.023,8.311,99.3,5.431,105.58
		c-0.597,1.299-0.418,2.021,0.706,2.885c1.919,1.471,3.859,2.914,5.764,4.402c2.895,2.262,6.202,3.088,9.811,2.898
		c3.973-0.209,7.601-1.562,11.057-3.428c6.107-3.293,11.225-7.818,15.833-12.939c9.329-10.365,16.062-22.279,20.821-35.337
		C72.974,54.318,75.24,44.315,75.336,33.056z"/>
</g>
</svg>
