<?xml version="1.0" encoding="utf-8"?>
<!-- Generator: Adobe Illustrator 16.0.0, SVG Export Plug-In . SVG Version: 6.00 Build 0)  -->
<!DOCTYPE svg PUBLIC "-//W3C//DTD SVG 1.1//EN" "http://www.w3.org/Graphics/SVG/1.1/DTD/svg11.dtd">
<svg version="1.1" id="Layer_1" xmlns="http://www.w3.org/2000/svg" xmlns:xlink="http://www.w3.org/1999/xlink" x="0px" y="0px"
	 width="183.986px" height="141.428px" viewBox="-504.772 12.885 183.986 141.428"
	 enable-background="new -504.772 12.885 183.986 141.428" xml:space="preserve">
<g>
	<g>
		<g>
			<g>
				<path fill="#00B181" d="M-336.143,54.672h-18.726V28.246c0-8.471-6.889-15.361-15.358-15.361h-119.184
					c-8.473,0-15.361,6.891-15.361,15.361v68.922c0,8.467,6.89,15.357,15.361,15.357h18.723v26.426
					c0,8.473,6.892,15.361,15.36,15.361h119.185c8.468,0,15.357-6.891,15.357-15.361V70.033
					C-320.786,61.565-327.675,54.672-336.143,54.672z M-495.995,28.246c0-3.629,2.951-6.584,6.584-6.584h119.184
					c3.632,0,6.584,2.955,6.584,6.584v6.129h-132.352V28.246z M-470.688,70.033v33.713h-18.723c-3.633,0-6.584-2.955-6.584-6.582
					V63.479h26.778C-470.16,65.467-470.688,67.69-470.688,70.033z M-495.995,54.703V43.153h132.352v11.52h-91.685
					c-0.298,0-0.592,0.016-0.886,0.031H-495.995L-495.995,54.703z M-336.143,145.537h-119.185c-3.63,0-6.587-2.953-6.587-6.586
					V70.033c0-3.447,2.668-6.279,6.049-6.555h96.606c0.165,0,0.323-0.012,0.479-0.027h22.636c3.626,0,6.579,2.955,6.579,6.582
					v68.918l0,0C-329.564,142.584-332.517,145.537-336.143,145.537z"/>
			</g>
		</g>
	</g>
	<path fill="#00B181" d="M-373.332,84.202l-28.455,28.732l-10.186-10.271c-1.793-1.808-4.669-1.808-6.46,0
		c-1.794,1.81-1.794,4.709,0,6.517l13.431,13.548c0.88,0.889,2.063,1.366,3.215,1.366s2.333-0.444,3.214-1.366l31.704-31.972
		c1.792-1.811,1.792-4.711,0-6.517C-368.631,82.395-371.541,82.395-373.332,84.202z"/>
</g>
</svg>
