<?xml version="1.0" encoding="utf-8"?>
<!-- Generator: Adobe Illustrator 16.0.0, SVG Export Plug-In . SVG Version: 6.00 Build 0)  -->
<!DOCTYPE svg PUBLIC "-//W3C//DTD SVG 1.1//EN" "http://www.w3.org/Graphics/SVG/1.1/DTD/svg11.dtd">
<svg version="1.1" id="Layer_1" xmlns="http://www.w3.org/2000/svg" xmlns:xlink="http://www.w3.org/1999/xlink" x="0px" y="0px"
	 width="184.252px" height="178.583px" viewBox="-412.746 552.762 184.252 178.583"
	 enable-background="new -412.746 552.762 184.252 178.583" xml:space="preserve">
<g>
	<g>
		<path fill="#00B181" d="M-327.836,638.496h-59.496c-1.617,0-2.928,1.594-2.928,3.558c0,1.965,1.311,3.558,2.928,3.558h59.496
			c1.617,0,2.929-1.593,2.929-3.558C-324.908,640.09-326.219,638.496-327.836,638.496z"/>
	</g>
</g>
<g>
	<g>
		<path fill="#00B181" d="M-336.625,666.612h-51.12c-1.39,0-2.516,1.593-2.516,3.558s1.126,3.558,2.516,3.558h51.12
			c1.39,0,2.516-1.593,2.516-3.558S-335.235,666.612-336.625,666.612z"/>
	</g>
</g>
<g>
	<g>
		<path fill="#00B181" d="M-335.068,694.361h-52.604c-1.43,0-2.589,1.592-2.589,3.557s1.159,3.558,2.589,3.558h52.604
			c1.43,0,2.589-1.593,2.589-3.558S-333.638,694.361-335.068,694.361z"/>
	</g>
</g>
<path fill="#00B181" d="M-300.758,724.23h-104.933V559.877h109.574V621.4c2.298-0.535,4.652-0.918,7.054-1.141v-63.94
	c0-1.965-1.579-3.557-3.527-3.557h-116.628c-1.948,0-3.527,1.592-3.527,3.557v171.468c0,1.965,1.579,3.558,3.527,3.558h116.628
	c1.948,0,3.527-1.593,3.527-3.558v-1.106C-293.11,726.306-297.026,725.471-300.758,724.23z"/>
<g>
	<g>
		<path fill="#00B181" d="M-315.075,583h-1.309c-1.948,0-3.527,1.593-3.527,3.557c0,1.965,1.579,3.558,3.527,3.558h1.309
			c1.948,0,3.527-1.593,3.527-3.558C-311.547,584.593-313.126,583-315.075,583z"/>
	</g>
</g>
<g>
	<g>
		<path fill="#00B181" d="M-331.818,583h-54.916c-1.948,0-3.527,1.593-3.527,3.557c0,1.965,1.579,3.558,3.527,3.558h54.915
			c1.948,0,3.527-1.593,3.527-3.558C-328.292,584.593-329.87,583-331.818,583z"/>
	</g>
</g>
<g>
	<g>
		<path fill="#00B181" d="M-315.075,610.748h-71.659c-1.948,0-3.527,1.593-3.527,3.558s1.579,3.558,3.527,3.558h71.659
			c1.948,0,3.527-1.593,3.527-3.558S-313.126,610.748-315.075,610.748z"/>
	</g>
</g>
<path fill="#00B181" d="M-244.895,634.91c-10.583-10.676-24.648-16.543-39.606-16.543s-29.023,5.867-39.606,16.543
	c-10.582,10.673-16.401,24.858-16.401,39.946s5.819,29.271,16.401,39.945c10.583,10.674,24.648,16.544,39.606,16.544
	s29.023-5.87,39.606-16.544c10.584-10.674,16.401-24.857,16.401-39.945S-234.311,645.583-244.895,634.91z M-284.501,725.106
	c-27.466,0-49.823-22.55-49.823-50.25c0-27.703,22.357-50.252,49.823-50.252s49.822,22.549,49.822,50.252
	C-234.679,702.556-257.036,725.106-284.501,725.106z"/>
<path fill="#00B181" d="M-271.421,661.825l-19.265,19.453l-6.896-6.954c-1.214-1.224-3.161-1.224-4.374,0
	c-1.215,1.225-1.215,3.188,0,4.412l9.093,9.173c0.596,0.601,1.397,0.924,2.177,0.924s1.58-0.3,2.176-0.924l21.465-21.647
	c1.213-1.225,1.213-3.189,0-4.412C-268.238,660.601-270.208,660.601-271.421,661.825z"/>
</svg>
