<?xml version="1.0" encoding="utf-8"?>
<!-- Generator: Adobe Illustrator 16.0.0, SVG Export Plug-In . SVG Version: 6.00 Build 0)  -->
<!DOCTYPE svg PUBLIC "-//W3C//DTD SVG 1.1//EN" "http://www.w3.org/Graphics/SVG/1.1/DTD/svg11.dtd">
<svg version="1.1" id="Шар_1" xmlns="http://www.w3.org/2000/svg" xmlns:xlink="http://www.w3.org/1999/xlink" x="0px" y="0px"
	 width="111.551px" height="111.551px" viewBox="0 0 111.551 111.551" enable-background="new 0 0 111.551 111.551"
	 xml:space="preserve">
<g>
	<circle fill="#00B181" stroke="#00B181" stroke-miterlimit="10" cx="55.776" cy="55.775" r="51.877"/>
	<g>
		<g>
			<path fill="#00B181" stroke="#00B181" stroke-miterlimit="10" d="M94.864,16.688C84.419,6.241,70.538,0.5,55.775,0.5
				S27.132,6.241,16.688,16.688C6.243,27.131,0.5,41.012,0.5,55.775s5.743,28.643,16.188,39.087
				c10.444,10.445,24.325,16.188,39.088,16.188s28.644-5.743,39.089-16.188c10.445-10.444,16.187-24.323,16.187-39.087
				S105.309,27.131,94.864,16.688z M55.775,104.945c-27.106,0-49.171-22.064-49.171-49.17c0-27.107,22.064-49.172,49.171-49.172
				c27.107,0,49.171,22.064,49.171,49.172C104.946,82.881,82.882,104.945,55.775,104.945z"/>
			<path fill="#FFFFFF" stroke="#FFFFFF" stroke-miterlimit="10" d="M68.685,43.024L49.672,62.06l-6.806-6.805
				c-1.198-1.197-3.119-1.197-4.317,0c-1.199,1.198-1.199,3.119,0,4.317l8.974,8.976c0.588,0.588,1.379,0.904,2.148,0.904
				c0.769,0,1.56-0.294,2.147-0.904l21.184-21.183c1.198-1.198,1.198-3.12,0-4.317C71.826,41.827,69.882,41.827,68.685,43.024z"/>
		</g>
	</g>
	<circle fill="none" stroke="#FFFFFF" stroke-width="4" stroke-miterlimit="10" cx="55.776" cy="55.775" r="49.413"/>
</g>
</svg>
