<?xml version="1.0" encoding="utf-8"?>
<!-- Generator: Adobe Illustrator 16.0.0, SVG Export Plug-In . SVG Version: 6.00 Build 0)  -->
<!DOCTYPE svg PUBLIC "-//W3C//DTD SVG 1.1//EN" "http://www.w3.org/Graphics/SVG/1.1/DTD/svg11.dtd">
<svg version="1.1" id="Capa_1" xmlns="http://www.w3.org/2000/svg" xmlns:xlink="http://www.w3.org/1999/xlink" x="0px" y="0px"
	 width="110.551px" height="110.551px" viewBox="-353.905 540 110.551 110.551"
	 enable-background="new -353.905 540 110.551 110.551" xml:space="preserve">
<g>
	<circle fill="#1F9BDE" cx="-298.63" cy="595.275" r="55.275"/>
	<g>
		<path fill="#FFFFFF" d="M-289.303,612.058l-0.628,2.59c-1.882,0.75-3.386,1.322-4.506,1.715c-1.121,0.394-2.423,0.59-3.907,0.59
			c-2.279,0-4.052-0.564-5.316-1.685c-1.264-1.124-1.896-2.549-1.896-4.277c0-0.669,0.046-1.356,0.141-2.058
			c0.096-0.703,0.249-1.493,0.458-2.377l2.353-8.409c0.209-0.806,0.387-1.568,0.53-2.29c0.145-0.717,0.214-1.376,0.214-1.971
			c0-1.074-0.221-1.825-0.659-2.247c-0.438-0.421-1.275-0.635-2.517-0.635c-0.608,0-1.233,0.098-1.87,0.288
			c-0.64,0.191-1.187,0.376-1.646,0.547l0.629-2.593c1.541-0.633,3.014-1.176,4.423-1.626c1.409-0.452,2.741-0.678,4-0.678
			c2.263,0,4.009,0.552,5.236,1.657c1.227,1.106,1.84,2.539,1.84,4.305c0,0.365-0.041,1.009-0.127,1.93
			c-0.085,0.922-0.242,1.767-0.472,2.535l-2.343,8.376c-0.191,0.673-0.364,1.441-0.515,2.308c-0.155,0.859-0.229,1.516-0.229,1.957
			c0,1.111,0.245,1.871,0.737,2.275c0.496,0.402,1.35,0.604,2.563,0.604c0.569,0,1.218-0.102,1.938-0.303
			C-290.151,612.388-289.628,612.212-289.303,612.058z M-288.708,576.895c0,1.459-0.545,2.706-1.64,3.73
			c-1.091,1.028-2.407,1.543-3.945,1.543c-1.544,0-2.862-0.515-3.966-1.543c-1.102-1.025-1.654-2.271-1.654-3.73
			c0-1.457,0.552-2.705,1.654-3.743c1.102-1.036,2.422-1.554,3.966-1.554c1.538,0,2.854,0.519,3.945,1.554
			C-289.253,574.19-288.708,575.438-288.708,576.895z"/>
	</g>
</g>
</svg>
