<?xml version="1.0" encoding="utf-8"?>
<!-- Generator: Adobe Illustrator 16.0.0, SVG Export Plug-In . SVG Version: 6.00 Build 0)  -->
<!DOCTYPE svg PUBLIC "-//W3C//DTD SVG 1.1//EN" "http://www.w3.org/Graphics/SVG/1.1/DTD/svg11.dtd">
<svg version="1.1" id="Capa_1" xmlns="http://www.w3.org/2000/svg" xmlns:xlink="http://www.w3.org/1999/xlink" x="0px" y="0px"
	 width="184.252px" height="184.252px" viewBox="542.618 154.366 184.252 184.252"
	 enable-background="new 542.618 154.366 184.252 184.252" xml:space="preserve">
<g>
	<g>
		<g>
			<path fill="#D60000" d="M634.745,154.366c-50.799,0-92.127,41.328-92.127,92.125c0,50.799,41.328,92.127,92.127,92.127
				c11.001,0,21.553-1.944,31.34-5.498c-0.877-0.412-1.647-0.8-2.235-1.113c-1.857-0.989-2.779-2.243-3.048-3.578
				c-8.222,2.623-16.975,4.047-26.057,4.047c-47.412,0-85.984-38.572-85.984-85.984c0-47.41,38.572-85.982,85.984-85.982
				c47.41,0,85.983,38.572,85.983,85.982c0,9.399-1.55,18.436-4.353,26.907c1.313,0.154,2.558,0.911,3.37,2.491
				c0.093,0.181,0.169,0.361,0.253,0.543c0.072,0.065,0.145,0.126,0.215,0.195c0.459,0.455,0.799,0.986,1.039,1.554
				c3.633-9.886,5.617-20.561,5.617-31.69C726.87,195.694,685.544,154.366,634.745,154.366z"/>
		</g>
	</g>
	<path fill="#D60000" d="M637.816,234.272v-31.145c0-1.697-1.376-3.07-3.071-3.07c-1.694,0-3.069,1.373-3.069,3.07v31.145
		c-4.297,1.119-7.659,4.48-8.777,8.777h-21.932c-1.695,0-3.07,1.373-3.07,3.07s1.375,3.07,3.07,3.07h21.932
		c1.373,5.283,6.144,9.213,11.849,9.213c6.773,0,12.283-5.51,12.283-12.283C647.028,240.411,643.098,235.646,637.816,234.272z
		 M634.745,252.263c-3.388,0-6.143-2.754-6.143-6.143s2.755-6.143,6.143-6.143s6.142,2.754,6.142,6.143
		S638.133,252.263,634.745,252.263z"/>
</g>
<path fill="#D60000" d="M1962.713,524.011c-1.2-1.201-3.142-1.201-4.342,0c-1.201,1.201-1.201,3.143,0,4.342l2.171,2.172
	c0.599,0.598,1.385,0.9,2.171,0.9s1.572-0.303,2.171-0.9c1.201-1.201,1.201-3.141,0-4.342L1962.713,524.011z"/>
<path fill="#D60000" d="M714.626,266.626c-7.899-7.971-18.399-12.35-29.566-12.35c-11.166,0-21.666,4.379-29.566,12.35
	c-7.899,7.969-12.244,18.559-12.244,29.82c0,11.266,4.345,21.854,12.244,29.82c7.9,7.969,18.4,12.352,29.566,12.352
	c11.167,0,21.667-4.383,29.566-12.352c7.901-7.967,12.244-18.557,12.244-29.82C726.87,285.185,722.528,274.595,714.626,266.626z
	 M685.06,333.96c-20.504,0-37.193-16.834-37.193-37.514s16.689-37.514,37.193-37.514s37.193,16.834,37.193,37.514
	S705.563,333.96,685.06,333.96z"/>
<path fill="#D60000" d="M671.807,310.228c0.571,0.57,1.319,0.857,2.069,0.857s1.5-0.287,2.07-0.857l9.641-9.641l9.641,9.641
	c0.571,0.57,1.321,0.857,2.07,0.857c0.748,0,1.498-0.287,2.068-0.857c1.146-1.145,1.146-2.994,0-4.139l-9.641-9.643l9.641-9.641
	c1.146-1.146,1.146-2.994,0-4.139c-1.145-1.146-2.994-1.146-4.14,0l-9.64,9.641l-9.642-9.641c-1.146-1.146-2.995-1.146-4.141,0
	c-1.146,1.145-1.146,2.992,0,4.139l9.641,9.641l-9.641,9.643C670.661,307.233,670.661,309.083,671.807,310.228z"/>
</svg>
