<?xml version="1.0" encoding="utf-8"?>
<!-- Generator: Adobe Illustrator 16.0.0, SVG Export Plug-In . SVG Version: 6.00 Build 0)  -->
<!DOCTYPE svg PUBLIC "-//W3C//DTD SVG 1.1//EN" "http://www.w3.org/Graphics/SVG/1.1/DTD/svg11.dtd">
<svg version="1.1" id="Layer_1" xmlns="http://www.w3.org/2000/svg" xmlns:xlink="http://www.w3.org/1999/xlink" x="0px" y="0px"
	 width="178.1px" height="178.101px" viewBox="-238.578 5.727 178.1 178.101" enable-background="new -238.578 5.727 178.1 178.101"
	 xml:space="preserve">
<g>
	<path fill="#D60000" d="M-149.528,5.727c-49.103,0-89.05,39.948-89.05,89.05c0,49.102,39.947,89.051,89.05,89.051
		c49.102,0,89.05-39.949,89.05-89.051C-60.479,45.676-100.427,5.727-149.528,5.727z M-149.528,177.891
		c-45.828,0-83.113-37.285-83.113-83.113c0-45.828,37.285-83.114,83.113-83.114s83.113,37.286,83.113,83.114
		C-66.415,140.606-103.7,177.891-149.528,177.891z"/>
	<path fill="#D60000" d="M-146.56,82.967V52.861c0-1.641-1.33-2.968-2.969-2.968s-2.969,1.327-2.969,2.968v30.106
		c-4.152,1.08-7.403,4.33-8.484,8.482h-21.199c-1.639,0-2.968,1.326-2.968,2.969c0,1.641,1.329,2.969,2.968,2.969h21.199
		c1.328,5.105,5.938,8.904,11.453,8.904c6.548,0,11.873-5.324,11.873-11.873C-137.655,88.901-141.455,84.293-146.56,82.967z
		 M-149.528,100.356c-3.274,0-5.937-2.664-5.937-5.938s2.662-5.938,5.937-5.938c3.273,0,5.937,2.664,5.937,5.938
		S-146.255,100.356-149.528,100.356z"/>
	<path fill="#D60000" d="M-149.528,35.052c1.639,0,2.969-1.326,2.969-2.968v-2.969c0-1.641-1.33-2.968-2.969-2.968
		s-2.969,1.327-2.969,2.968v2.969C-152.497,33.725-151.167,35.052-149.528,35.052z"/>
	<path fill="#D60000" d="M-149.528,153.785c-1.639,0-2.969,1.326-2.969,2.967v2.969c0,1.643,1.33,2.969,2.969,2.969
		s2.969-1.326,2.969-2.969v-2.969C-146.56,155.112-147.89,153.785-149.528,153.785z"/>
	<path fill="#D60000" d="M-84.225,91.449h-2.969c-1.638,0-2.969,1.326-2.969,2.969c0,1.641,1.331,2.969,2.969,2.969h2.969
		c1.638,0,2.968-1.328,2.968-2.969C-81.257,92.776-82.587,91.449-84.225,91.449z"/>
	<path fill="#D60000" d="M-211.863,91.449h-2.968c-1.638,0-2.969,1.326-2.969,2.969c0,1.641,1.331,2.969,2.969,2.969h2.968
		c1.638,0,2.968-1.328,2.968-2.969C-208.896,92.776-210.225,91.449-211.863,91.449z"/>
	<path fill="#D60000" d="M-105.452,46.141l-2.099,2.099c-1.16,1.16-1.16,3.036,0,4.198c0.579,0.577,1.34,0.869,2.099,0.869
		c0.76,0,1.521-0.292,2.099-0.869l2.1-2.1c1.16-1.16,1.16-3.036,0-4.197C-102.415,44.981-104.292,44.984-105.452,46.141z"/>
	<path fill="#D60000" d="M-195.704,136.397l-2.098,2.098c-1.161,1.162-1.161,3.037,0,4.199c0.578,0.578,1.338,0.869,2.098,0.869
		s1.52-0.291,2.1-0.869l2.098-2.1c1.161-1.162,1.161-3.037,0-4.197C-192.667,135.237-194.546,135.239-195.704,136.397z"/>
	<path fill="#D60000" d="M-103.354,136.397c-1.16-1.16-3.036-1.16-4.197,0c-1.16,1.16-1.16,3.035,0,4.197l2.099,2.1
		c0.578,0.578,1.339,0.869,2.099,0.869c0.761,0,1.521-0.291,2.1-0.869c1.16-1.162,1.16-3.037,0-4.199L-103.354,136.397z"/>
	<path fill="#D60000" d="M-193.604,46.141c-1.162-1.16-3.037-1.16-4.197,0c-1.161,1.161-1.161,3.037,0,4.197l2.098,2.1
		c0.579,0.577,1.34,0.869,2.1,0.869c0.759,0,1.519-0.292,2.098-0.869c1.161-1.162,1.161-3.038,0-4.198L-193.604,46.141z"/>
</g>
</svg>
