<?xml version="1.0" encoding="utf-8"?>
<!-- Generator: Adobe Illustrator 16.0.0, SVG Export Plug-In . SVG Version: 6.00 Build 0)  -->
<!DOCTYPE svg PUBLIC "-//W3C//DTD SVG 1.1//EN" "http://www.w3.org/Graphics/SVG/1.1/DTD/svg11.dtd">
<svg version="1.1" id="Layer_1" xmlns="http://www.w3.org/2000/svg" xmlns:xlink="http://www.w3.org/1999/xlink" x="0px" y="0px"
	 width="176.656px" height="178.178px" viewBox="11.955 200.024 176.656 178.178"
	 enable-background="new 11.955 200.024 176.656 178.178" xml:space="preserve">
<g>
	<path fill="#D60000" d="M162.748,226.114c-16.691-16.838-38.873-26.09-62.462-26.09c-23.593,0-45.775,9.252-62.463,26.09
		c-16.689,16.832-25.868,39.204-25.868,63.001c0,23.793,9.179,46.159,25.868,62.995c16.688,16.834,38.871,26.092,62.463,26.092
		c23.589,0,45.771-9.258,62.462-26.092c16.688-16.836,25.863-39.202,25.863-62.995C188.611,265.318,179.437,242.948,162.748,226.114
		z M100.286,368.364c-43.32,0-78.58-35.565-78.58-79.249c0-43.692,35.259-79.255,78.58-79.255c43.313,0,78.571,35.562,78.571,79.255
		C178.857,332.798,143.6,368.364,100.286,368.364z"/>
	<path fill="#D60000" d="M78.555,310.847c0.899,0.899,2.079,1.352,3.26,1.352c1.183,0,2.366-0.452,3.265-1.352l15.207-15.205
		l15.202,15.205c0.901,0.899,2.088,1.352,3.267,1.352c1.178,0,2.362-0.452,3.262-1.352c1.81-1.806,1.81-4.722,0-6.527
		l-15.204-15.205l15.204-15.208c1.81-1.807,1.81-4.719,0-6.525c-1.805-1.808-4.723-1.808-6.528,0l-15.202,15.204l-15.207-15.204
		c-1.807-1.808-4.725-1.808-6.527,0c-1.81,1.807-1.81,4.719,0,6.525l15.203,15.208L78.552,304.32
		C76.746,306.125,76.746,309.042,78.555,310.847z"/>
</g>
</svg>
