<?xml version="1.0" encoding="utf-8"?>
<!-- Generator: Adobe Illustrator 16.0.0, SVG Export Plug-In . SVG Version: 6.00 Build 0)  -->
<!DOCTYPE svg PUBLIC "-//W3C//DTD SVG 1.1//EN" "http://www.w3.org/Graphics/SVG/1.1/DTD/svg11.dtd">
<svg version="1.1" id="Layer_1" xmlns="http://www.w3.org/2000/svg" xmlns:xlink="http://www.w3.org/1999/xlink" x="0px" y="0px"
	 width="183.986px" height="141.427px" viewBox="194.829 111.377 183.986 141.427"
	 enable-background="new 194.829 111.377 183.986 141.427" xml:space="preserve">
<g>
	<g>
		<g>
			<path fill="#D60000" d="M363.458,153.165h-18.726v-26.426c0-8.472-6.888-15.361-15.358-15.361H210.19
				c-8.472,0-15.361,6.89-15.361,15.361v68.921c0,8.468,6.89,15.357,15.361,15.357h18.723v26.427c0,8.472,6.891,15.36,15.36,15.36
				h119.185c8.468,0,15.357-6.889,15.357-15.36v-68.918C378.815,160.056,371.926,153.165,363.458,153.165z M203.606,126.739
				c0-3.629,2.951-6.584,6.584-6.584h119.184c3.632,0,6.584,2.955,6.584,6.584v6.128H203.606V126.739z M228.913,168.526v33.713
				H210.19c-3.633,0-6.584-2.955-6.584-6.583v-33.685h26.779C229.441,163.959,228.913,166.182,228.913,168.526z M203.606,153.196
				v-11.551h132.352v11.52h-91.685c-0.298,0-0.592,0.015-0.886,0.031H203.606z M363.458,244.03H244.273
				c-3.63,0-6.587-2.953-6.587-6.586v-68.918c0-3.447,2.668-6.28,6.049-6.555h96.607c0.165,0,0.323-0.011,0.479-0.027h22.636
				c3.626,0,6.579,2.955,6.579,6.582v68.918l0,0C370.037,241.077,367.084,244.03,363.458,244.03z"/>
		</g>
	</g>
	<path fill="#D60000" d="M282.163,225.844c0.899,0.899,2.079,1.352,3.26,1.352c1.183,0,2.366-0.452,3.265-1.352l15.207-15.205
		l15.202,15.205c0.901,0.899,2.088,1.352,3.267,1.352c1.178,0,2.362-0.452,3.262-1.352c1.81-1.806,1.81-4.722,0-6.527
		l-15.204-15.205l15.204-15.208c1.81-1.807,1.81-4.719,0-6.525c-1.805-1.808-4.723-1.808-6.528,0l-15.202,15.204l-15.207-15.204
		c-1.807-1.808-4.725-1.808-6.527,0c-1.81,1.807-1.81,4.719,0,6.525l15.203,15.208l-15.203,15.205
		C280.354,221.123,280.354,224.039,282.163,225.844z"/>
</g>
</svg>
