<?xml version="1.0" encoding="utf-8"?>
<!-- Generator: Adobe Illustrator 16.0.0, SVG Export Plug-In . SVG Version: 6.00 Build 0)  -->
<!DOCTYPE svg PUBLIC "-//W3C//DTD SVG 1.1//EN" "http://www.w3.org/Graphics/SVG/1.1/DTD/svg11.dtd">
<svg version="1.1" id="Layer_1" xmlns="http://www.w3.org/2000/svg" xmlns:xlink="http://www.w3.org/1999/xlink" x="0px" y="0px"
	 width="176.656px" height="178.178px" viewBox="-254.126 45.54 176.656 178.178"
	 enable-background="new -254.126 45.54 176.656 178.178" xml:space="preserve">
<path fill="#D60000" d="M-103.334,71.63c-16.691-16.837-38.873-26.09-62.461-26.09c-23.593,0-45.776,9.253-62.464,26.09
	c-16.689,16.833-25.868,39.205-25.868,63.001c0,23.793,9.179,46.159,25.868,62.995c16.688,16.834,38.871,26.092,62.464,26.092
	c23.588,0,45.77-9.258,62.461-26.092c16.688-16.836,25.863-39.202,25.863-62.995C-77.471,110.834-86.646,88.464-103.334,71.63z
	 M-165.795,213.88c-43.321,0-78.58-35.565-78.58-79.249c0-43.692,35.259-79.254,78.58-79.254c43.313,0,78.571,35.562,78.571,79.254
	C-87.225,178.315-122.482,213.88-165.795,213.88z"/>
<path fill="#D60000" d="M-187.527,156.364c0.899,0.899,2.079,1.352,3.26,1.352c1.183,0,2.367-0.452,3.265-1.352l15.208-15.205
	l15.202,15.205c0.901,0.899,2.088,1.352,3.267,1.352c1.178,0,2.362-0.452,3.262-1.352c1.81-1.806,1.81-4.722,0-6.527l-15.204-15.205
	l15.204-15.207c1.81-1.807,1.81-4.72,0-6.527c-1.805-1.807-4.723-1.807-6.528,0l-15.202,15.205l-15.208-15.205
	c-1.807-1.807-4.724-1.807-6.528,0c-1.809,1.808-1.809,4.721,0,6.527l15.204,15.207l-15.204,15.205
	C-189.336,151.642-189.336,154.558-187.527,156.364z"/>
</svg>
