<?xml version="1.0" encoding="utf-8"?>
<!-- Generator: Adobe Illustrator 16.0.0, SVG Export Plug-In . SVG Version: 6.00 Build 0)  -->
<!DOCTYPE svg PUBLIC "-//W3C//DTD SVG 1.1//EN" "http://www.w3.org/Graphics/SVG/1.1/DTD/svg11.dtd">
<svg version="1.1" id="Layer_1" xmlns="http://www.w3.org/2000/svg" xmlns:xlink="http://www.w3.org/1999/xlink" x="0px" y="0px"
	 width="176.018px" height="174.74px" viewBox="-307.108 201.717 176.018 174.74"
	 enable-background="new -307.108 201.717 176.018 174.74" xml:space="preserve">
<g>
	<g id="Layer_2_16_">
		<g>
			<path fill="#0052BB" d="M-201.318,361.399c-1.453,0.361-2.932,0.683-4.402,0.953c-3.838,0.714-6.377,4.408-5.666,8.25
				c0.352,1.891,1.424,3.466,2.883,4.493c1.5,1.058,3.414,1.535,5.363,1.174c1.748-0.326,3.512-0.707,5.242-1.139
				c3.789-0.943,6.1-4.785,5.154-8.575C-193.688,362.763-197.525,360.455-201.318,361.399z"/>
			<path fill="#0052BB" d="M-148.992,266.555c0.494,1.493,1.441,2.713,2.639,3.556c1.771,1.248,4.092,1.667,6.303,0.936
				c3.711-1.231,5.721-5.232,4.492-8.941c-0.559-1.689-1.18-3.387-1.84-5.037c-1.451-3.629-5.566-5.396-9.197-3.944
				c-3.625,1.451-5.395,5.568-3.943,9.197C-149.982,263.709-149.461,265.134-148.992,266.555z"/>
			<path fill="#0052BB" d="M-178.326,351.296c-1.248,0.823-2.537,1.621-3.834,2.368c-3.389,1.953-4.547,6.282-2.594,9.667
				c0.531,0.919,1.234,1.672,2.049,2.247c2.182,1.536,5.146,1.767,7.617,0.345c1.541-0.89,3.076-1.837,4.564-2.819
				c3.258-2.154,4.154-6.544,2-9.805C-170.678,350.038-175.066,349.141-178.326,351.296z"/>
			<path fill="#0052BB" d="M-131.158,286.317c-0.152-3.904-3.443-6.944-7.35-6.793c-3.902,0.155-6.943,3.445-6.791,7.351
				c0.059,1.491,0.074,3.006,0.039,4.497c-0.055,2.45,1.143,4.632,3.006,5.944c1.109,0.781,2.453,1.254,3.912,1.288
				c3.908,0.086,7.145-3.012,7.23-6.92C-131.072,289.903-131.086,288.097-131.158,286.317z"/>
			<path fill="#0052BB" d="M-150.146,332.681c-3.133-2.351-7.562-1.711-9.908,1.415c-0.898,1.196-1.844,2.38-2.814,3.519
				c-2.529,2.974-2.174,7.44,0.801,9.974c0.17,0.144,0.342,0.275,0.52,0.399c2.957,2.085,7.066,1.605,9.457-1.199
				c1.156-1.357,2.283-2.771,3.355-4.201C-146.389,339.461-147.025,335.028-150.146,332.681z"/>
			<path fill="#0052BB" d="M-139.744,307.103c-3.73-1.17-7.701,0.906-8.871,4.635c-0.447,1.425-0.941,2.855-1.479,4.258
				c-1.172,3.086-0.047,6.481,2.533,8.301c0.473,0.332,0.994,0.614,1.561,0.83c3.65,1.392,7.74-0.44,9.131-4.093
				c0.637-1.665,1.227-3.369,1.758-5.063C-133.943,312.242-136.018,308.272-139.744,307.103z"/>
			<path fill="#0052BB" d="M-232.191,362.417c-6.327-1.136-12.395-3.07-18.149-5.769c-0.069-0.036-0.13-0.076-0.201-0.108
				c-1.356-0.639-2.71-1.321-4.023-2.037c-0.004-0.005-0.013-0.008-0.019-0.011c-2.408-1.326-4.757-2.793-7.041-4.4
				c-33.286-23.447-41.289-69.603-17.84-102.89c5.099-7.235,11.27-13.271,18.148-18.055c0.085-0.06,0.17-0.118,0.254-0.178
				c24.242-16.702,57.155-17.828,82.897-0.664l-5.529,7.987c-1.537,2.224-0.592,3.844,2.1,3.602l24.014-2.15
				c2.691-0.242,4.305-2.573,3.582-5.174l-6.451-23.235c-0.721-2.604-2.568-2.915-4.109-0.692l-5.539,8.007
				c-18.891-12.68-41.547-17.516-64.034-13.615c-2.265,0.392-4.499,0.872-6.701,1.43c-0.017,0.003-0.03,0.005-0.044,0.009
				c-0.085,0.02-0.172,0.047-0.254,0.069c-19.392,4.98-36.31,16.291-48.383,32.427c-0.102,0.121-0.207,0.239-0.303,0.371
				c-0.401,0.54-0.799,1.093-1.19,1.646c-0.638,0.907-1.266,1.836-1.868,2.766c-0.076,0.112-0.132,0.226-0.198,0.339
				c-9.963,15.438-14.768,33.285-13.944,51.455c0.002,0.06-0.002,0.12,0,0.182c0.08,1.774,0.22,3.574,0.411,5.347
				c0.01,0.113,0.036,0.223,0.056,0.336c0.198,1.781,0.445,3.566,0.756,5.353c3.157,18.213,11.749,34.604,24.624,47.356
				c0.03,0.03,0.061,0.062,0.091,0.094c0.011,0.011,0.022,0.018,0.033,0.028c3.459,3.411,7.222,6.566,11.272,9.421
				c10.603,7.47,22.408,12.408,35.087,14.684c3.846,0.691,7.52-1.87,8.211-5.715C-225.787,366.783-228.346,363.105-232.191,362.417z
				"/>
			<path fill="#0052BB" d="M-223.441,232.558c-3.164,0-5.728,2.565-5.728,5.726v57.038l52.165,26.966
				c0.842,0.436,1.738,0.639,2.623,0.639c2.072,0,4.074-1.127,5.092-3.095c1.451-2.811,0.354-6.263-2.457-7.714l-45.975-23.768
				v-50.066C-217.723,235.124-220.279,232.558-223.441,232.558z"/>
		</g>
	</g>
</g>
</svg>
