<?xml version="1.0" encoding="utf-8"?>
<!-- Generator: Adobe Illustrator 16.0.0, SVG Export Plug-In . SVG Version: 6.00 Build 0)  -->
<!DOCTYPE svg PUBLIC "-//W3C//DTD SVG 1.1//EN" "http://www.w3.org/Graphics/SVG/1.1/DTD/svg11.dtd">
<svg version="1.1" id="Layer_1" xmlns="http://www.w3.org/2000/svg" xmlns:xlink="http://www.w3.org/1999/xlink" x="0px" y="0px"
	 width="176.018px" height="174.74px" viewBox="-307.108 201.717 176.018 174.74"
	 enable-background="new -307.108 201.717 176.018 174.74" xml:space="preserve">
<g>
	<g>
		<path fill="#10B080" d="M-219.101,201.539c-48.275,0-87.546,39.274-87.546,87.549c0,48.273,39.271,87.548,87.546,87.548
			c48.276,0,87.55-39.274,87.55-87.548C-131.551,240.813-170.825,201.539-219.101,201.539z M-219.101,365.153
			c-41.943,0-76.064-34.123-76.064-76.065s34.121-76.066,76.064-76.066c41.943,0,76.068,34.124,76.068,76.066
			S-177.158,365.153-219.101,365.153z"/>
		<path fill="#10B080" d="M-187.404,260.426l-45.145,45.144l-18.25-18.246c-2.242-2.24-5.875-2.241-8.118,0.002
			c-2.243,2.243-2.243,5.876,0,8.118l22.309,22.307c1.122,1.118,2.59,1.68,4.059,1.68c1.469,0,2.941-0.562,4.062-1.683
			c0.003-0.005,0.006-0.01,0.012-0.015l49.189-49.188c2.243-2.241,2.243-5.878,0-8.118
			C-181.529,258.183-185.164,258.183-187.404,260.426z"/>
	</g>
</g>
</svg>
